<?xml version="1.0" encoding="UTF-8" standalone="no"?>
<!-- Created with Inkscape (http://www.inkscape.org/) -->

<svg
   width="1024"
   height="1024"
   viewBox="0 0 270.93333 270.93333"
   version="1.1"
   id="svg1"
   xml:space="preserve"
   inkscape:version="1.4 (86a8ad7, 2024-10-11)"
   sodipodi:docname="Logo_Builder.svg"
   xmlns:inkscape="http://www.inkscape.org/namespaces/inkscape"
   xmlns:sodipodi="http://sodipodi.sourceforge.net/DTD/sodipodi-0.dtd"
   xmlns:xlink="http://www.w3.org/1999/xlink"
   xmlns="http://www.w3.org/2000/svg"
   xmlns:svg="http://www.w3.org/2000/svg"><sodipodi:namedview
     id="namedview1"
     pagecolor="#505050"
     bordercolor="#eeeeee"
     borderopacity="1"
     inkscape:showpageshadow="0"
     inkscape:pageopacity="0"
     inkscape:pagecheckerboard="0"
     inkscape:deskcolor="#505050"
     inkscape:document-units="mm"
     inkscape:zoom="0.35945917"
     inkscape:cx="242.03027"
     inkscape:cy="324.098"
     inkscape:window-width="1920"
     inkscape:window-height="1009"
     inkscape:window-x="-8"
     inkscape:window-y="421"
     inkscape:window-maximized="1"
     inkscape:current-layer="svg1" /><defs
     id="defs1"><linearGradient
       id="linearGradient5"
       inkscape:collect="always"><stop
         style="stop-color:#000000;stop-opacity:1;"
         offset="0"
         id="stop6" /><stop
         style="stop-color:#343434;stop-opacity:1;"
         offset="1"
         id="stop7" /></linearGradient><linearGradient
       id="linearGradient4"
       inkscape:collect="always"><stop
         style="stop-color:#000000;stop-opacity:1;"
         offset="0"
         id="stop4" /><stop
         style="stop-color:#383838;stop-opacity:1;"
         offset="1"
         id="stop5" /></linearGradient><linearGradient
       id="linearGradient27"
       inkscape:collect="always"><stop
         style="stop-color:#8921ff;stop-opacity:1;"
         offset="0.11581292"
         id="stop27" /><stop
         style="stop-color:#ffffff;stop-opacity:1;"
         offset="1"
         id="stop28" /></linearGradient><linearGradient
       inkscape:collect="always"
       xlink:href="#linearGradient27"
       id="linearGradient28"
       x1="135.56686"
       y1="38.10231"
       x2="135.56686"
       y2="233.92131"
       gradientUnits="userSpaceOnUse" /><radialGradient
       inkscape:collect="always"
       xlink:href="#linearGradient4"
       id="radialGradient5"
       cx="127.57102"
       cy="41.816218"
       fx="127.57102"
       fy="41.816218"
       r="69.825429"
       gradientTransform="matrix(1,0,0,0.64482023,0,14.852275)"
       gradientUnits="userSpaceOnUse" /><radialGradient
       inkscape:collect="always"
       xlink:href="#linearGradient5"
       id="radialGradient7"
       cx="267.91977"
       cy="176.2312"
       fx="267.91977"
       fy="176.2312"
       r="16.138541"
       gradientTransform="matrix(1.142317,0.33474587,-1.4510548,4.9517106,173.54372,-790.19495)"
       gradientUnits="userSpaceOnUse" /></defs><path
     id="path1"
     style="display:inline;fill:#8921ff;stroke:url(#linearGradient28);stroke-width:3.96875;stroke-linecap:round;stroke-linejoin:round;stroke-dasharray:none;paint-order:fill markers stroke;stroke-opacity:1;fill-opacity:1;stroke-dashoffset:0"
     inkscape:label="Logo"
     d="M 124.79783,31.398221 39.641735,116.55434 v 39.10539 L 75.797444,119.50402 V 150.2841 L 52.53403,173.54676 v 22.97774 l 23.263414,-23.26266 v 67.36355 L 104.34128,212.08081 V 90.960183 l 20.45655,-20.456574 z m 21.53805,0 v 39.105388 l 20.45658,20.456574 V 212.08081 l 28.54381,28.54458 v -67.36355 l 23.26342,23.26266 V 173.54676 L 195.33627,150.2841 v -30.78008 l 36.15571,36.15571 v -39.10539 z" /><path
     style="fill:#757575;fill-opacity:1;stroke:url(#radialGradient7);stroke-width:2.924;stroke-linecap:round;stroke-linejoin:round;stroke-dasharray:none;paint-order:fill markers stroke"
     d="m 196.67572,246.73966 c -12.28277,-20.31092 4.81542,-58.08316 14.00344,-69.81763 9.18802,-11.73447 10.91633,-9.71308 10.91633,-9.71308 l 11.84738,-40.42904 -9.51272,-2.78762 16.8912,-31.20379 11.29633,3.31028 -2.02755,35.55946 -8.91818,-2.61338 -11.84735,40.42903 c 0,0 2.35284,-1.59318 3.52694,13.29995 1.17409,14.89314 -5.11789,56.26971 -26.66311,66.75342 -2.97117,1.44574 -7.80284,0.0398 -9.51271,-2.7876 z"
     id="path5"
     sodipodi:nodetypes="azcccccccczaa" /><path
     id="path4"
     style="fill:#fff320;fill-opacity:1;stroke:url(#radialGradient5);stroke-width:3.96875;stroke-linecap:round;stroke-linejoin:round;stroke-opacity:1;paint-order:fill markers stroke"
     d="m 150.73255,28.466435 2.72814,33.042939 M 95.55961,35.128644 101.48036,67.02259 M 62.208064,84.856714 195.41208,67.876414 c 0,0 -2.32937,-47.992439 -21.97557,-50.654231 -20.08464,-2.721192 -21.5338,11.595839 -22.43918,12.284675 0,0 1.81115,-34.663096 -31.90631,-30.36493394 C 85.373558,3.4400879 97.427173,36.773412 95.817661,36.554785 94.208159,36.33616 88.246053,23.075072 70.991568,30.281443 52.679659,37.929449 62.208064,84.856714 62.208064,84.856714 Z" /></svg>
