<!DOCTYPE svg PUBLIC "-//W3C//DTD SVG 1.1//EN" "http://www.w3.org/Graphics/SVG/1.1/DTD/svg11.dtd">
<!-- Uploaded to: SVG Repo, www.svgrepo.com, Transformed by: SVG Repo Mixer Tools -->
<svg width="148px" height="148px" viewBox="-4.8 -4.8 25.60 25.60" xmlns="http://www.w3.org/2000/svg" fill="#000000">
<g id="SVGRepo_bgCarrier" stroke-width="0"/>
<g id="SVGRepo_tracerCarrier" stroke-linecap="round" stroke-linejoin="round"/>
<g id="SVGRepo_iconCarrier"> <path d="m 2 6.007812 c -1.105469 0 -2 0.894532 -2 2 c 0 1.101563 0.894531 2 2 2 s 2 -0.898437 2 -2 c 0 -1.105468 -0.894531 -2 -2 -2 z m 6 0 c -1.105469 0 -2 0.894532 -2 2 c 0 1.101563 0.894531 2 2 2 s 2 -0.898437 2 -2 c 0 -1.105468 -0.894531 -2 -2 -2 z m 6 0 c -1.105469 0 -2 0.894532 -2 2 c 0 1.101563 0.894531 2 2 2 s 2 -0.898437 2 -2 c 0 -1.105468 -0.894531 -2 -2 -2 z m 0 0" fill="#000000"/> </g>
</svg>